<svg width="41" height="41" viewBox="0 0 41 41" fill="none" xmlns="http://www.w3.org/2000/svg">
<path d="M18.7783 25.2919C20.4955 24.1487 21.7992 22.4832 22.4966 20.5417C23.1941 18.6003 23.2482 16.4859 22.651 14.5113C22.0539 12.5367 20.8371 10.8066 19.1807 9.57706C17.5242 8.34747 15.516 7.68359 13.4531 7.68359C11.3902 7.68359 9.38199 8.34747 7.72554 9.57706C6.0691 10.8066 4.85232 12.5367 4.25515 14.5113C3.65798 16.4859 3.71211 18.6003 4.40955 20.5417C5.10699 22.4832 6.4107 24.1487 8.1279 25.2919C5.02166 26.4367 2.36885 28.5553 0.565324 31.3314C0.470537 31.4722 0.404698 31.6306 0.371633 31.7971C0.338569 31.9636 0.338939 32.1351 0.372722 32.3015C0.406506 32.4679 0.473028 32.6259 0.568423 32.7664C0.663817 32.9069 0.786182 33.027 0.928402 33.1197C1.07062 33.2125 1.22986 33.2761 1.39687 33.3068C1.56387 33.3374 1.73531 33.3346 1.90121 33.2985C2.06712 33.2623 2.22418 33.1935 2.36327 33.0961C2.50236 32.9987 2.6207 32.8747 2.71142 32.7311C3.87478 30.9418 5.46668 29.4715 7.34256 28.4536C9.21843 27.4358 11.3189 26.9026 13.4531 26.9026C15.5873 26.9026 17.6878 27.4358 19.5636 28.4536C21.4395 29.4715 23.0314 30.9418 24.1948 32.7311C24.3827 33.0104 24.673 33.2045 25.0029 33.2715C25.3328 33.3385 25.6758 33.2729 25.9578 33.089C26.2397 32.9051 26.438 32.6177 26.5097 32.2887C26.5814 31.9598 26.5207 31.6159 26.3409 31.3314C24.5373 28.5553 21.8845 26.4367 18.7783 25.2919ZM6.40622 17.2969C6.40622 15.9031 6.81951 14.5407 7.59383 13.3818C8.36816 12.223 9.46873 11.3198 10.7564 10.7864C12.044 10.253 13.4609 10.1135 14.8279 10.3854C16.1948 10.6573 17.4505 11.3285 18.436 12.314C19.4215 13.2995 20.0927 14.5551 20.3646 15.9221C20.6365 17.289 20.4969 18.7059 19.9636 19.9936C19.4302 21.2812 18.527 22.3818 17.3681 23.1561C16.2093 23.9304 14.8468 24.3437 13.4531 24.3437C11.5848 24.3416 9.79363 23.5985 8.47255 22.2774C7.15146 20.9563 6.40834 19.1652 6.40622 17.2969ZM40.0615 33.1043C39.7769 33.2899 39.4302 33.3548 39.0977 33.2848C38.7652 33.2149 38.4742 33.0157 38.2885 32.7311C37.1266 30.9408 35.5349 29.4698 33.6586 28.4524C31.7823 27.4349 29.6812 26.9034 27.5468 26.9062C27.207 26.9062 26.8811 26.7713 26.6409 26.531C26.4006 26.2907 26.2656 25.9648 26.2656 25.625C26.2656 25.2852 26.4006 24.9593 26.6409 24.719C26.8811 24.4787 27.207 24.3437 27.5468 24.3437C28.5846 24.3428 29.6094 24.1126 30.5478 23.6697C31.4863 23.2267 32.3154 22.582 32.9759 21.7815C33.6363 20.981 34.1118 20.0446 34.3683 19.039C34.6249 18.0335 34.6562 16.9837 34.46 15.9646C34.2638 14.9456 33.845 13.9824 33.2334 13.144C32.6218 12.3056 31.8326 11.6126 30.9222 11.1146C30.0117 10.6165 29.0025 10.3257 27.9666 10.2629C26.9308 10.2001 25.8938 10.3669 24.9299 10.7513C24.7727 10.8192 24.6035 10.855 24.4323 10.8564C24.2611 10.8579 24.0913 10.825 23.933 10.7597C23.7747 10.6944 23.6311 10.5981 23.5107 10.4764C23.3903 10.3547 23.2955 10.21 23.2319 10.0511C23.1683 9.89208 23.1372 9.72197 23.1405 9.55078C23.1437 9.37959 23.1813 9.21079 23.2509 9.05435C23.3205 8.89791 23.4208 8.75701 23.5457 8.63998C23.6707 8.52295 23.8179 8.43215 23.9786 8.37296C26.1847 7.49314 28.6384 7.46148 30.8665 8.28409C33.0945 9.10669 34.939 10.7253 36.0441 12.8276C37.1492 14.9299 37.4366 17.367 36.8508 19.6686C36.265 21.9703 34.8476 23.9736 32.872 25.2919C35.9783 26.4367 38.6311 28.5553 40.4346 31.3314C40.6202 31.616 40.6852 31.9626 40.6152 32.2951C40.5452 32.6276 40.346 32.9186 40.0615 33.1043Z" fill="#343330"/>
</svg>
