<svg width="42" height="41" viewBox="0 0 42 41" fill="none" xmlns="http://www.w3.org/2000/svg">
<path d="M16.3411 25.1589C17.4152 26.2272 18.2668 27.4978 18.8466 28.8974C19.4264 30.297 19.7228 31.7976 19.7188 33.3125C19.7188 33.6523 19.5838 33.9782 19.3435 34.2185C19.1032 34.4588 18.7773 34.5938 18.4375 34.5938C18.0977 34.5938 17.7718 34.4588 17.5315 34.2185C17.2912 33.9782 17.1563 33.6523 17.1563 33.3125C17.1563 30.9338 16.2113 28.6526 14.5294 26.9706C12.8474 25.2887 10.5662 24.3438 8.1875 24.3438C7.84769 24.3438 7.5218 24.2088 7.28152 23.9685C7.04124 23.7282 6.90625 23.4023 6.90625 23.0625C6.90625 22.7227 7.04124 22.3968 7.28152 22.1565C7.5218 21.9162 7.84769 21.7813 8.1875 21.7813C9.70239 21.7772 11.203 22.0736 12.6026 22.6534C14.0022 23.2332 15.2728 24.0848 16.3411 25.1589ZM8.1875 14.0938C7.84769 14.0938 7.5218 14.2287 7.28152 14.469C7.04124 14.7093 6.90625 15.0352 6.90625 15.375C6.90625 15.7148 7.04124 16.0407 7.28152 16.281C7.5218 16.5213 7.84769 16.6563 8.1875 16.6563C10.3748 16.6563 12.5407 17.0871 14.5616 17.9241C16.5824 18.7612 18.4186 19.9881 19.9652 21.5348C21.5119 23.0814 22.7388 24.9176 23.5759 26.9384C24.4129 28.9593 24.8438 31.1252 24.8438 33.3125C24.8438 33.6523 24.9787 33.9782 25.219 34.2185C25.4593 34.4588 25.7852 34.5938 26.125 34.5938C26.4648 34.5938 26.7907 34.4588 27.031 34.2185C27.2713 33.9782 27.4062 33.6523 27.4062 33.3125C27.4062 28.2154 25.3814 23.327 21.7772 19.7228C18.173 16.1186 13.2846 14.0938 8.1875 14.0938ZM27.2125 14.2875C24.7199 11.7812 21.755 9.7941 18.4894 8.44127C15.2238 7.08845 11.7222 6.39677 8.1875 6.40625C7.84769 6.40625 7.5218 6.54124 7.28152 6.78152C7.04124 7.02181 6.90625 7.3477 6.90625 7.6875C6.90625 8.02731 7.04124 8.3532 7.28152 8.59348C7.5218 8.83377 7.84769 8.96875 8.1875 8.96875C11.3857 8.95999 14.5538 9.58566 17.5085 10.8096C20.4632 12.0334 23.1459 13.8313 25.4011 16.0989C27.6687 18.3541 29.4666 21.0368 30.6905 23.9915C31.9143 26.9462 32.54 30.1143 32.5312 33.3125C32.5312 33.6523 32.6662 33.9782 32.9065 34.2185C33.1468 34.4588 33.4727 34.5938 33.8125 34.5938C34.1523 34.5938 34.4782 34.4588 34.7185 34.2185C34.9588 33.9782 35.0938 33.6523 35.0938 33.3125C35.1032 29.7778 34.4116 26.2762 33.0587 23.0106C31.7059 19.745 29.7188 16.7801 27.2125 14.2875ZM8.82813 30.75C8.44802 30.75 8.07644 30.8627 7.76039 31.0739C7.44434 31.2851 7.19801 31.5852 7.05254 31.9364C6.90708 32.2876 6.86902 32.674 6.94318 33.0468C7.01734 33.4196 7.20038 33.7621 7.46915 34.0308C7.73793 34.2996 8.08038 34.4827 8.45319 34.5568C8.82599 34.631 9.21242 34.5929 9.5636 34.4475C9.91477 34.302 10.2149 34.0557 10.4261 33.7396C10.6373 33.4236 10.75 33.052 10.75 32.6719C10.75 32.1622 10.5475 31.6733 10.1871 31.3129C9.82668 30.9525 9.33784 30.75 8.82813 30.75Z" fill="#343330"/>
</svg>
