<svg width="42" height="41" viewBox="0 0 42 41" fill="none" xmlns="http://www.w3.org/2000/svg">
<path d="M37.6227 30.0021C38.5263 28.1653 38.9766 26.1387 38.936 24.092C38.8953 22.0454 38.3649 20.0382 37.3891 18.2387C36.4133 16.4392 35.0205 14.8997 33.3274 13.7492C31.6343 12.5986 29.6901 11.8705 27.6577 11.6257C26.9837 10.0545 26.002 8.63403 24.7705 7.44806C23.539 6.26208 22.0826 5.33458 20.487 4.72019C18.8915 4.10581 17.1892 3.81697 15.4803 3.87069C13.7714 3.92442 12.0906 4.31962 10.5368 5.03301C8.98302 5.74641 7.58774 6.76357 6.43316 8.02456C5.27858 9.28555 4.38805 10.7649 3.81405 12.3754C3.24005 13.9859 2.99418 15.6949 3.09094 17.4019C3.18769 19.1089 3.6251 20.7793 4.37741 22.3146L3.15061 26.61C3.04114 26.9942 3.03635 27.4008 3.13672 27.7875C3.2371 28.1743 3.439 28.5272 3.72154 28.8097C4.00408 29.0923 4.35698 29.2942 4.74374 29.3946C5.13049 29.4949 5.53704 29.4901 5.92132 29.3807L10.2167 28.1539C11.5129 28.7903 12.9071 29.2034 14.3407 29.3759C15.0241 30.9769 16.0266 32.422 17.287 33.6227C18.5474 34.8235 20.0393 35.7548 21.6716 36.3599C23.3038 36.9649 25.0423 37.231 26.7808 37.1418C28.5194 37.0527 30.2215 36.6102 31.7834 35.8414L36.0787 37.0682C36.463 37.1776 36.8696 37.1824 37.2563 37.0821C37.6431 36.9817 37.996 36.7798 38.2785 36.4972C38.5611 36.2147 38.763 35.8618 38.8633 35.475C38.9637 35.0883 38.9589 34.6817 38.8494 34.2975L37.6227 30.0021ZM10.3544 25.5017C10.2354 25.5017 10.1168 25.5179 10.0021 25.5497L5.77237 26.7589L6.98155 22.5292C7.07217 22.2069 7.03308 21.862 6.87265 21.5682C5.69456 19.4054 5.3353 16.8904 5.86071 14.4842C6.38612 12.078 7.761 9.94175 9.73341 8.46682C11.7058 6.99189 14.1437 6.27711 16.6003 6.45345C19.0568 6.62979 21.3676 7.68544 23.1091 9.42697C24.8507 11.1685 25.9063 13.4793 26.0826 15.9358C26.259 18.3924 25.5442 20.8303 24.0693 22.8027C22.5943 24.7751 20.458 26.15 18.0518 26.6754C15.6457 27.2008 13.1307 26.8415 10.9678 25.6634C10.7803 25.5586 10.5693 25.5029 10.3544 25.5017ZM35.0185 30.2167L36.2277 34.4464L31.998 33.2372C31.6757 33.1466 31.3308 33.1857 31.037 33.3461C28.6752 34.6311 25.9033 34.9375 23.3179 34.1995C20.7324 33.4615 18.54 31.738 17.2123 29.3999C18.9668 29.2172 20.6645 28.6738 22.199 27.804C23.7336 26.9342 25.0718 25.7566 26.1297 24.3451C27.1876 22.9336 27.9424 21.3188 28.3468 19.6018C28.7511 17.8848 28.7962 16.1028 28.4793 14.3676C30.0146 14.7294 31.4457 15.4407 32.6611 16.4461C33.8766 17.4514 34.8436 18.7237 35.4869 20.1639C36.1302 21.6041 36.4325 23.1734 36.3701 24.7495C36.3078 26.3256 35.8825 27.8661 35.1274 29.2509C34.9657 29.5461 34.9266 29.893 35.0185 30.2167Z" fill="#343330"/>
</svg>
