<svg width="177" height="51" viewBox="0 0 177 51" fill="none" xmlns="http://www.w3.org/2000/svg">
<path d="M44.1921 35.4231C43.8112 35.0725 43.1451 35.2697 42.2991 35.5167C41.9147 35.6434 41.521 35.7373 41.1219 35.7976C40.3467 35.8753 39.9352 36.214 39.7247 36.5028C39.1294 36.1901 37.847 35.437 37.2976 34.5206C36.5397 33.2576 35.2362 32.0802 34.9912 31.867C34.1471 30.6498 33.3528 29.0262 32.6503 27.5918C32.0474 26.3606 31.4789 25.1992 30.9659 24.474C30.3396 23.5737 29.4149 22.947 28.3705 22.7149C28.3264 22.705 28.2824 22.695 28.2384 22.687L28.1982 22.6811C27.7778 22.6251 27.3687 22.4993 26.9866 22.3085C26.4985 22.0396 26.2229 21.6132 26.2229 20.8781V20.4C26.7929 20.2369 27.3303 19.9691 27.8096 19.6091C28.1454 20.193 28.6215 20.6759 29.191 21.0101C29.7605 21.3444 30.4038 21.5186 31.0576 21.5156H32.3381C32.4396 21.5153 32.5368 21.4732 32.6085 21.3986C32.6802 21.3239 32.7206 21.2228 32.7209 21.1172V17.5591C32.7227 16.3581 32.3296 15.1925 31.6069 14.2561C31.6931 14.12 31.7529 13.9678 31.783 13.8079L31.8692 13.3636C31.9052 13.1766 31.9008 12.9837 31.8565 12.7987C31.8121 12.6137 31.7289 12.4412 31.6127 12.2938C31.5053 12.1575 31.3716 12.0462 31.2203 11.9671L31.5342 9.89121C31.6899 8.86721 31.6305 7.82027 31.3602 6.82244C31.0899 5.8246 30.6151 4.89958 29.9684 4.11103C29.3217 3.32248 28.5186 2.68913 27.6142 2.25457C26.7099 1.82002 25.7258 1.59457 24.7297 1.59375H24.1632C23.1671 1.59457 22.183 1.82002 21.2786 2.25457C20.3743 2.68913 19.5711 3.32248 18.9245 4.11103C18.2778 4.89958 17.803 5.8246 17.5327 6.82244C17.2624 7.82027 17.203 8.86721 17.3587 9.89121L17.6707 11.9671C17.52 12.0464 17.387 12.1577 17.2802 12.2938C17.1632 12.4408 17.0795 12.6132 17.0351 12.7983C16.9907 12.9835 16.9868 13.1767 17.0237 13.3636L17.1079 13.8079C17.1641 14.0995 17.3154 14.3619 17.5362 14.5507C17.7571 14.7395 18.0338 14.843 18.3195 14.8438H18.3636C18.7004 17.336 20.4307 19.8362 22.7774 20.4299V20.8781C22.7774 21.6112 22.5018 22.0396 22.0118 22.3085C21.6243 22.4998 21.2102 22.6262 20.7848 22.683L20.7638 22.687C20.7198 22.695 20.6738 22.705 20.6298 22.7149C19.5853 22.9468 18.6605 23.5736 18.0343 24.474C17.5214 25.1992 16.9529 26.3606 16.35 27.5918C15.6475 29.0262 14.8532 30.6498 14.0091 31.867C13.7641 32.0802 12.4606 33.2576 11.7026 34.5206C11.1533 35.437 9.87085 36.1901 9.27558 36.5028C9.06503 36.214 8.65351 35.8753 7.87831 35.7976C7.47927 35.7373 7.08559 35.6434 6.70117 35.5167C5.85515 35.2697 5.18906 35.0725 4.80816 35.4231C4.72019 35.5075 4.65513 35.6146 4.61951 35.7335C4.5839 35.8524 4.57898 35.9789 4.60527 36.1004C4.72011 36.8873 5.47999 38.3775 6.61121 39.1286C6.96359 39.3723 7.36332 39.532 7.78186 39.5964C8.2004 39.6608 8.62743 39.6283 9.03249 39.5011C9.23538 39.4393 9.44402 39.3636 9.65839 39.276C9.58034 39.5019 9.5283 39.7366 9.50335 39.9752C9.42931 40.5305 9.46714 41.0956 9.61444 41.6348C9.76174 42.174 10.0153 42.6754 10.3589 43.107C11.2318 44.2106 12.7132 45.0035 14.635 45.5992C13.7564 45.7028 12.9793 45.9359 12.7362 46.41C12.6694 46.5448 12.6409 46.6966 12.6542 46.8476C12.6674 46.9987 12.7217 47.1427 12.8109 47.2627C12.8759 47.3643 12.941 47.4698 13.0061 47.5754C13.5095 48.3922 14.1354 49.4062 15.2953 49.4062C15.9625 49.4223 16.6296 49.373 17.2878 49.2588C17.5558 49.223 17.8908 49.1772 18.3214 49.1214C19.6536 48.9626 20.9252 48.4546 22.0175 47.6452L22.341 47.4001C23.076 47.3384 23.7957 47.2766 24.4981 47.2089C25.2063 47.2766 25.9279 47.3384 26.6591 47.4001L26.9692 47.6332C28.0643 48.4503 29.3418 48.9625 30.6805 49.1214C31.1112 49.1791 31.4481 49.223 31.716 49.2588C32.373 49.3731 33.0389 49.4224 33.7048 49.4062C34.8628 49.4062 35.4887 48.3922 35.9921 47.5774C36.0571 47.4698 36.1222 47.3643 36.1892 47.2627C36.2783 47.143 36.3326 46.9994 36.3458 46.8487C36.3591 46.698 36.3306 46.5464 36.2639 46.412C36.0208 45.9398 35.2494 45.7048 34.3766 45.5992C37.3434 44.6888 39.8336 43.1129 39.4967 39.9752C39.4721 39.7363 39.4193 39.5015 39.3398 39.276C39.5541 39.3636 39.7647 39.4393 39.9676 39.5011C40.3726 39.6283 40.7997 39.6608 41.2182 39.5964C41.6367 39.532 42.0365 39.3723 42.3889 39.1286C43.5201 38.3775 44.28 36.8873 44.3948 36.1004C44.4211 35.9789 44.4162 35.8524 44.3806 35.7335C44.3451 35.6146 44.28 35.5075 44.1921 35.4231ZM29.85 29.3768C30.6559 30.8929 31.6454 32.4667 32.0244 33.0663C32.3823 33.6341 32.9546 34.8115 32.9604 34.8234C32.9776 34.8595 33.0002 34.8924 33.0274 34.9211C33.8355 35.7186 34.7048 36.4462 35.6267 37.0965C33.5365 36.8873 30.941 37.2659 28.7131 37.6902C28.737 36.8366 28.8435 35.9876 29.0308 35.1561C29.1533 34.5983 29.2969 34.0883 29.4309 33.6002C29.785 32.3213 30.0969 31.1996 29.9285 29.8589C29.9092 29.7015 29.8824 29.5402 29.8498 29.3768H29.85ZM26.5789 38.1225C25.8935 38.2891 25.1994 38.4142 24.5 38.497H24.4981C24.2034 38.497 23.3784 38.3237 22.4214 38.1225C21.9964 38.0329 21.539 37.9372 21.0547 37.8416C21.0439 37.0354 20.9625 36.2319 20.8116 35.441H28.1884C28.0375 36.2319 27.9562 37.0354 27.9453 37.8416C27.4611 37.9372 27.0038 38.0329 26.5789 38.1225ZM19.0718 29.8589C18.9033 31.1996 19.2153 32.3213 19.5694 33.6002C19.7034 34.0883 19.8469 34.5983 19.9694 35.1561C20.1568 35.9876 20.2632 36.8366 20.2872 37.6902C18.0592 37.2659 15.4637 36.8873 13.3736 37.0965C14.2955 36.4462 15.1648 35.7186 15.9729 34.9211C16 34.8924 16.0227 34.8595 16.0399 34.8234C16.0456 34.8115 16.6179 33.6341 16.9759 33.0663C17.3548 32.4667 18.3444 30.8929 19.1502 29.3768C19.1177 29.5402 19.0909 29.7015 19.0718 29.8589ZM31.1189 13.2082L31.0327 13.6525C31.0122 13.7612 30.9566 13.8594 30.8751 13.9307C30.7937 14.0021 30.6913 14.0424 30.5848 14.0449C30.5868 14.021 30.5868 13.9971 30.5868 13.9732V12.6205H30.6576C30.7272 12.6211 30.7958 12.6376 30.8586 12.6689C30.9214 12.7002 30.9768 12.7455 31.0208 12.8016C31.0648 12.8577 31.0965 12.9232 31.1134 12.9935C31.1304 13.0638 31.1322 13.1371 31.1189 13.2082ZM17.8582 13.6525L17.774 13.2082C17.7602 13.137 17.7617 13.0636 17.7785 12.9931C17.7952 12.9226 17.8268 12.8569 17.871 12.8007C17.9151 12.7445 17.9707 12.6991 18.0337 12.668C18.0967 12.6368 18.1656 12.6206 18.2353 12.6205H18.3042V13.9732C18.3042 13.9971 18.3042 14.021 18.3061 14.0449C18.1998 14.0421 18.0975 14.0016 18.0161 13.9303C17.9348 13.859 17.8791 13.761 17.8582 13.6525ZM19.0718 14.0409C19.0698 14.019 19.0698 13.9951 19.0698 13.9732V11.6762C19.0666 11.2923 19.1804 10.9173 19.3951 10.6051C19.6097 10.2929 19.9141 10.0597 20.2642 9.93902C21.2655 9.62676 22.1178 8.9351 22.653 8.00063C23.3612 9.1541 25.2044 11.2339 29.3771 11.485C29.4973 11.492 29.6103 11.5467 29.6929 11.6379C29.7755 11.7291 29.8214 11.8497 29.8211 11.975V13.9732C29.8211 13.9951 29.8211 14.019 29.8192 14.0409C29.787 14.9568 29.5681 15.8551 29.177 16.6763C28.786 17.4975 28.2318 18.2229 27.5511 18.8043C26.8491 19.4093 25.9702 19.7479 25.0589 19.7645H23.8339C23.6435 19.7647 23.4534 19.7487 23.2655 19.7167C20.8844 19.3222 19.1024 16.5093 19.0718 14.0409ZM23.543 20.8781V20.5514C23.6387 20.5574 23.7363 20.5614 23.8339 20.5614H25.0589C25.1929 20.5614 25.3269 20.5554 25.4571 20.5434V20.8781C25.4571 21.9081 25.8839 22.5137 26.4141 22.8823V24.2708C26.4141 24.7992 26.2124 25.3059 25.8535 25.6795C25.4945 26.0531 25.0077 26.263 24.5 26.263C23.9924 26.263 23.5055 26.0531 23.1466 25.6795C22.7876 25.3059 22.586 24.7992 22.586 24.2708V22.8823C23.1162 22.5137 23.543 21.9081 23.543 20.8781ZM8.81621 38.7361C8.5161 38.8318 8.1992 38.8563 7.88881 38.8077C7.57843 38.7591 7.28247 38.6386 7.02273 38.4552C6.21928 37.8684 5.63565 37.0104 5.37089 36.0267C5.75134 36.0777 6.12669 36.1637 6.49253 36.2837C6.92122 36.4239 7.36044 36.5266 7.80558 36.5905C8.60566 36.6702 8.74156 37.1085 8.74347 37.1145C8.75594 37.1716 8.78041 37.2252 8.81513 37.2713C8.84985 37.3174 8.89396 37.355 8.94428 37.3813C8.99461 37.4076 9.0499 37.4219 9.10619 37.4233C9.16248 37.4247 9.21837 37.4131 9.26984 37.3894C9.3598 37.3495 11.5016 36.3614 12.3515 34.943C13.1056 33.6859 14.5201 32.4587 14.5354 32.4468C14.559 32.4248 14.5808 32.4008 14.6005 32.375C15.4905 31.104 16.3098 29.4286 17.0314 27.9524C17.619 26.7531 18.1741 25.6175 18.6507 24.9462C19.0808 24.3289 19.6818 23.8632 20.3733 23.6114C20.3982 24.4402 20.3944 26.1993 20.0058 27.7412C19.9353 27.65 19.8399 27.5833 19.7321 27.55C19.6006 27.5071 19.4586 27.5152 19.3324 27.5727C19.2061 27.6302 19.104 27.7332 19.045 27.8627C18.2391 29.6039 16.8055 31.881 16.3346 32.63C15.9959 33.1679 15.5059 34.162 15.3834 34.4091C14.6196 35.2139 12.7496 36.6981 10.96 37.736C10.2822 38.149 9.56341 38.4843 8.81621 38.7361ZM21.5543 47.0096C20.5663 47.7287 19.4229 48.1824 18.2257 48.3305C17.7932 48.3882 17.4582 48.4321 17.1902 48.4679C16.5644 48.578 15.9298 48.6253 15.2953 48.6094C14.5546 48.6094 14.0952 47.8643 13.6511 47.1451C13.5822 47.0336 13.5152 46.924 13.4482 46.8204C13.4375 46.8057 13.4285 46.7896 13.4214 46.7726C13.5459 46.6192 14.344 46.3164 16.1088 46.3164C16.3404 46.3164 16.5548 46.3243 16.7634 46.3323C17.0719 46.3522 17.3813 46.3522 17.6898 46.3323C18.9244 46.5634 20.2623 46.7527 21.6768 46.918L21.5543 47.0096ZM35.5786 46.7726C35.5729 46.7825 35.5652 46.7985 35.5518 46.8204C35.4848 46.926 35.4159 47.0355 35.347 47.1471C34.903 47.8663 34.4455 48.6094 33.7048 48.6094C33.0715 48.6255 32.4382 48.5781 31.8137 48.4679C31.5438 48.4321 31.2088 48.3882 30.7743 48.3325C29.5711 48.1848 28.4224 47.7267 27.4324 46.9997L27.0209 46.6889C26.9638 46.647 26.8971 46.6216 26.8275 46.6152C26.3624 46.5754 25.8992 46.5355 25.4418 46.4957C25.6463 45.9145 25.7713 45.3062 25.8131 44.6888C25.9413 44.7744 26.0715 44.8621 26.2035 44.9517C26.2318 44.9717 26.2628 44.9872 26.2954 44.9975L26.8199 45.1729C26.8746 45.1914 26.9327 45.1968 26.9898 45.1885C27.0468 45.1802 27.1013 45.1585 27.1491 45.125C27.685 44.7545 28.889 44.3182 29.6087 45.3143C29.7874 45.5923 30.0224 45.8262 30.2972 45.9996C30.5719 46.1731 30.8798 46.2819 31.1993 46.3184C31.2238 46.324 31.2488 46.3266 31.2739 46.3263C31.5943 46.3513 31.916 46.3533 32.2367 46.3323C32.4396 46.3243 32.6578 46.3164 32.8932 46.3164C34.656 46.3164 35.4542 46.6192 35.5786 46.7726ZM41.9773 38.4552C41.7176 38.6386 41.4216 38.7591 41.1113 38.8077C40.8009 38.8563 40.484 38.8318 40.1839 38.7361C39.4367 38.4843 38.7179 38.149 38.0401 37.736C36.2505 36.6981 34.3804 35.2139 33.6167 34.4091C33.4942 34.162 33.0042 33.1679 32.6654 32.63C32.1946 31.881 30.7609 29.6039 29.9551 27.8627C29.896 27.7332 29.794 27.6302 29.6677 27.5727C29.5414 27.5152 29.3995 27.5071 29.268 27.55C29.1602 27.5833 29.0647 27.65 28.9943 27.7412C28.6057 26.1993 28.6019 24.4402 28.6268 23.6114C29.3182 23.8632 29.9193 24.3289 30.3494 24.9462C30.826 25.6175 31.3811 26.7531 31.9687 27.9524C32.6903 29.4286 33.5095 31.104 34.3996 32.375C34.4192 32.4008 34.441 32.4248 34.4646 32.4468C34.48 32.4587 35.8944 33.6859 36.6486 34.943C37.4984 36.3614 39.6403 37.3495 39.7302 37.3894C39.7807 37.4141 39.8358 37.4268 39.8916 37.4266C39.9474 37.4263 40.0024 37.4131 40.0527 37.3879C40.1029 37.3627 40.1471 37.3262 40.1821 37.2809C40.217 37.2357 40.2418 37.1829 40.2547 37.1264C40.2585 37.1085 40.3944 36.6702 41.1945 36.5905C41.6396 36.5266 42.0788 36.4239 42.5075 36.2837C42.8714 36.161 43.2457 36.075 43.6253 36.0267H43.6292C43.3645 37.0104 42.7809 37.8684 41.9775 38.4552H41.9773Z" fill="white"/>
<path d="M44.1921 35.4231C43.8112 35.0725 43.1451 35.2697 42.2991 35.5167C41.9147 35.6434 41.521 35.7373 41.1219 35.7976C40.3467 35.8753 39.9352 36.214 39.7247 36.5028C39.1294 36.1901 37.847 35.437 37.2976 34.5206C36.5397 33.2576 35.2362 32.0802 34.9912 31.867C34.1471 30.6498 33.3528 29.0262 32.6503 27.5918C32.0474 26.3606 31.4789 25.1992 30.9659 24.474C30.3396 23.5737 29.4149 22.947 28.3705 22.7149C28.3264 22.705 28.2824 22.695 28.2384 22.687L28.1982 22.6811C27.7778 22.6251 27.3687 22.4993 26.9866 22.3085C26.4985 22.0396 26.2229 21.6132 26.2229 20.8781V20.4C26.7929 20.2369 27.3303 19.9691 27.8096 19.6091C28.1454 20.193 28.6215 20.6759 29.191 21.0101C29.7605 21.3444 30.4038 21.5186 31.0576 21.5156H32.3381C32.4396 21.5153 32.5368 21.4732 32.6085 21.3986C32.6802 21.3239 32.7206 21.2228 32.7209 21.1172V17.5591C32.7227 16.3581 32.3296 15.1925 31.6069 14.2561C31.6931 14.12 31.7529 13.9678 31.783 13.8079L31.8692 13.3636C31.9052 13.1766 31.9008 12.9837 31.8565 12.7987C31.8121 12.6137 31.7289 12.4412 31.6127 12.2938C31.5053 12.1575 31.3716 12.0462 31.2203 11.9671L31.5342 9.89121C31.6899 8.86721 31.6305 7.82027 31.3602 6.82244C31.0899 5.8246 30.6151 4.89958 29.9684 4.11103C29.3217 3.32248 28.5186 2.68913 27.6142 2.25457C26.7099 1.82002 25.7258 1.59457 24.7297 1.59375H24.1632C23.1671 1.59457 22.183 1.82002 21.2786 2.25457C20.3743 2.68913 19.5711 3.32248 18.9245 4.11103C18.2778 4.89958 17.803 5.8246 17.5327 6.82244C17.2624 7.82027 17.203 8.86721 17.3587 9.89121L17.6707 11.9671C17.52 12.0464 17.387 12.1577 17.2802 12.2938C17.1632 12.4408 17.0795 12.6132 17.0351 12.7983C16.9907 12.9835 16.9868 13.1767 17.0237 13.3636L17.1079 13.8079C17.1641 14.0995 17.3154 14.3619 17.5362 14.5507C17.7571 14.7395 18.0338 14.843 18.3195 14.8438H18.3636C18.7004 17.336 20.4307 19.8362 22.7774 20.4299V20.8781C22.7774 21.6112 22.5018 22.0396 22.0118 22.3085C21.6243 22.4998 21.2102 22.6262 20.7848 22.683L20.7638 22.687C20.7198 22.695 20.6738 22.705 20.6298 22.7149C19.5853 22.9468 18.6605 23.5736 18.0343 24.474C17.5214 25.1992 16.9529 26.3606 16.35 27.5918C15.6475 29.0262 14.8532 30.6498 14.0091 31.867C13.7641 32.0802 12.4606 33.2576 11.7026 34.5206C11.1533 35.437 9.87085 36.1901 9.27558 36.5028C9.06503 36.214 8.65351 35.8753 7.87831 35.7976C7.47927 35.7373 7.08559 35.6434 6.70117 35.5167C5.85515 35.2697 5.18906 35.0725 4.80816 35.4231C4.72019 35.5075 4.65513 35.6146 4.61951 35.7335C4.5839 35.8524 4.57898 35.9789 4.60527 36.1004C4.72011 36.8873 5.47999 38.3775 6.61121 39.1286C6.96359 39.3723 7.36332 39.532 7.78186 39.5964C8.2004 39.6608 8.62743 39.6283 9.03249 39.5011C9.23538 39.4393 9.44402 39.3636 9.65839 39.276C9.58034 39.5019 9.5283 39.7366 9.50335 39.9752C9.42931 40.5305 9.46714 41.0956 9.61444 41.6348C9.76174 42.174 10.0153 42.6754 10.3589 43.107C11.2318 44.2106 12.7132 45.0035 14.635 45.5992C13.7564 45.7028 12.9793 45.9359 12.7362 46.41C12.6694 46.5448 12.6409 46.6966 12.6542 46.8476C12.6674 46.9987 12.7217 47.1427 12.8109 47.2627C12.8759 47.3643 12.941 47.4698 13.0061 47.5754C13.5095 48.3922 14.1354 49.4062 15.2953 49.4062C15.9625 49.4223 16.6296 49.373 17.2878 49.2588C17.5558 49.223 17.8908 49.1772 18.3214 49.1214C19.6536 48.9626 20.9252 48.4546 22.0175 47.6452L22.341 47.4001C23.076 47.3384 23.7957 47.2766 24.4981 47.2089C25.2063 47.2766 25.9279 47.3384 26.6591 47.4001L26.9692 47.6332C28.0643 48.4503 29.3418 48.9625 30.6805 49.1214C31.1112 49.1791 31.4481 49.223 31.716 49.2588C32.373 49.3731 33.0389 49.4224 33.7048 49.4062C34.8628 49.4062 35.4887 48.3922 35.9921 47.5774C36.0571 47.4698 36.1222 47.3643 36.1892 47.2627C36.2783 47.143 36.3326 46.9994 36.3458 46.8487C36.3591 46.698 36.3306 46.5464 36.2639 46.412C36.0208 45.9398 35.2494 45.7048 34.3766 45.5992C37.3434 44.6888 39.8336 43.1129 39.4967 39.9752C39.4721 39.7363 39.4193 39.5015 39.3398 39.276C39.5541 39.3636 39.7647 39.4393 39.9676 39.5011C40.3726 39.6283 40.7997 39.6608 41.2182 39.5964C41.6367 39.532 42.0365 39.3723 42.3889 39.1286C43.5201 38.3775 44.28 36.8873 44.3948 36.1004C44.4211 35.9789 44.4162 35.8524 44.3806 35.7335C44.3451 35.6146 44.28 35.5075 44.1921 35.4231ZM29.85 29.3768C30.6559 30.8929 31.6454 32.4667 32.0244 33.0663C32.3823 33.6341 32.9546 34.8115 32.9604 34.8234C32.9776 34.8595 33.0002 34.8924 33.0274 34.9211C33.8355 35.7186 34.7048 36.4462 35.6267 37.0965C33.5365 36.8873 30.941 37.2659 28.7131 37.6902C28.737 36.8366 28.8435 35.9876 29.0308 35.1561C29.1533 34.5983 29.2969 34.0883 29.4309 33.6002C29.785 32.3213 30.0969 31.1996 29.9285 29.8589C29.9092 29.7015 29.8824 29.5402 29.8498 29.3768H29.85ZM26.5789 38.1225C25.8935 38.2891 25.1994 38.4142 24.5 38.497H24.4981C24.2034 38.497 23.3784 38.3237 22.4214 38.1225C21.9964 38.0329 21.539 37.9372 21.0547 37.8416C21.0439 37.0354 20.9625 36.2319 20.8116 35.441H28.1884C28.0375 36.2319 27.9562 37.0354 27.9453 37.8416C27.4611 37.9372 27.0038 38.0329 26.5789 38.1225ZM19.0718 29.8589C18.9033 31.1996 19.2153 32.3213 19.5694 33.6002C19.7034 34.0883 19.8469 34.5983 19.9694 35.1561C20.1568 35.9876 20.2632 36.8366 20.2872 37.6902C18.0592 37.2659 15.4637 36.8873 13.3736 37.0965C14.2955 36.4462 15.1648 35.7186 15.9729 34.9211C16 34.8924 16.0227 34.8595 16.0399 34.8234C16.0456 34.8115 16.6179 33.6341 16.9759 33.0663C17.3548 32.4667 18.3444 30.8929 19.1502 29.3768C19.1177 29.5402 19.0909 29.7015 19.0718 29.8589ZM31.1189 13.2082L31.0327 13.6525C31.0122 13.7612 30.9566 13.8594 30.8751 13.9307C30.7937 14.0021 30.6913 14.0424 30.5848 14.0449C30.5868 14.021 30.5868 13.9971 30.5868 13.9732V12.6205H30.6576C30.7272 12.6211 30.7958 12.6376 30.8586 12.6689C30.9214 12.7002 30.9768 12.7455 31.0208 12.8016C31.0648 12.8577 31.0965 12.9232 31.1134 12.9935C31.1304 13.0638 31.1322 13.1371 31.1189 13.2082ZM17.8582 13.6525L17.774 13.2082C17.7602 13.137 17.7617 13.0636 17.7785 12.9931C17.7952 12.9226 17.8268 12.8569 17.871 12.8007C17.9151 12.7445 17.9707 12.6991 18.0337 12.668C18.0967 12.6368 18.1656 12.6206 18.2353 12.6205H18.3042V13.9732C18.3042 13.9971 18.3042 14.021 18.3061 14.0449C18.1998 14.0421 18.0975 14.0016 18.0161 13.9303C17.9348 13.859 17.8791 13.761 17.8582 13.6525ZM19.0718 14.0409C19.0698 14.019 19.0698 13.9951 19.0698 13.9732V11.6762C19.0666 11.2923 19.1804 10.9173 19.3951 10.6051C19.6097 10.2929 19.9141 10.0597 20.2642 9.93902C21.2655 9.62676 22.1178 8.9351 22.653 8.00063C23.3612 9.1541 25.2044 11.2339 29.3771 11.485C29.4973 11.492 29.6103 11.5467 29.6929 11.6379C29.7755 11.7291 29.8214 11.8497 29.8211 11.975V13.9732C29.8211 13.9951 29.8211 14.019 29.8192 14.0409C29.787 14.9568 29.5681 15.8551 29.177 16.6763C28.786 17.4975 28.2318 18.2229 27.5511 18.8043C26.8491 19.4093 25.9702 19.7479 25.0589 19.7645H23.8339C23.6435 19.7647 23.4534 19.7487 23.2655 19.7167C20.8844 19.3222 19.1024 16.5093 19.0718 14.0409ZM23.543 20.8781V20.5514C23.6387 20.5574 23.7363 20.5614 23.8339 20.5614H25.0589C25.1929 20.5614 25.3269 20.5554 25.4571 20.5434V20.8781C25.4571 21.9081 25.8839 22.5137 26.4141 22.8823V24.2708C26.4141 24.7992 26.2124 25.3059 25.8535 25.6795C25.4945 26.0531 25.0077 26.263 24.5 26.263C23.9924 26.263 23.5055 26.0531 23.1466 25.6795C22.7876 25.3059 22.586 24.7992 22.586 24.2708V22.8823C23.1162 22.5137 23.543 21.9081 23.543 20.8781ZM8.81621 38.7361C8.5161 38.8318 8.1992 38.8563 7.88881 38.8077C7.57843 38.7591 7.28247 38.6386 7.02273 38.4552C6.21928 37.8684 5.63565 37.0104 5.37089 36.0267C5.75134 36.0777 6.12669 36.1637 6.49253 36.2837C6.92122 36.4239 7.36044 36.5266 7.80558 36.5905C8.60566 36.6702 8.74156 37.1085 8.74347 37.1145C8.75594 37.1716 8.78041 37.2252 8.81513 37.2713C8.84985 37.3174 8.89396 37.355 8.94428 37.3813C8.99461 37.4076 9.0499 37.4219 9.10619 37.4233C9.16248 37.4247 9.21837 37.4131 9.26984 37.3894C9.3598 37.3495 11.5016 36.3614 12.3515 34.943C13.1056 33.6859 14.5201 32.4587 14.5354 32.4468C14.559 32.4248 14.5808 32.4008 14.6005 32.375C15.4905 31.104 16.3098 29.4286 17.0314 27.9524C17.619 26.7531 18.1741 25.6175 18.6507 24.9462C19.0808 24.3289 19.6818 23.8632 20.3733 23.6114C20.3982 24.4402 20.3944 26.1993 20.0058 27.7412C19.9353 27.65 19.8399 27.5833 19.7321 27.55C19.6006 27.5071 19.4586 27.5152 19.3324 27.5727C19.2061 27.6302 19.104 27.7332 19.045 27.8627C18.2391 29.6039 16.8055 31.881 16.3346 32.63C15.9959 33.1679 15.5059 34.162 15.3834 34.4091C14.6196 35.2139 12.7496 36.6981 10.96 37.736C10.2822 38.149 9.56341 38.4843 8.81621 38.7361ZM21.5543 47.0096C20.5663 47.7287 19.4229 48.1824 18.2257 48.3305C17.7932 48.3882 17.4582 48.4321 17.1902 48.4679C16.5644 48.578 15.9298 48.6253 15.2953 48.6094C14.5546 48.6094 14.0952 47.8643 13.6511 47.1451C13.5822 47.0336 13.5152 46.924 13.4482 46.8204C13.4375 46.8057 13.4285 46.7896 13.4214 46.7726C13.5459 46.6192 14.344 46.3164 16.1088 46.3164C16.3404 46.3164 16.5548 46.3243 16.7634 46.3323C17.0719 46.3522 17.3813 46.3522 17.6898 46.3323C18.9244 46.5634 20.2623 46.7527 21.6768 46.918L21.5543 47.0096ZM35.5786 46.7726C35.5729 46.7825 35.5652 46.7985 35.5518 46.8204C35.4848 46.926 35.4159 47.0355 35.347 47.1471C34.903 47.8663 34.4455 48.6094 33.7048 48.6094C33.0715 48.6255 32.4382 48.5781 31.8137 48.4679C31.5438 48.4321 31.2088 48.3882 30.7743 48.3325C29.5711 48.1848 28.4224 47.7267 27.4324 46.9997L27.0209 46.6889C26.9638 46.647 26.8971 46.6216 26.8275 46.6152C26.3624 46.5754 25.8992 46.5355 25.4418 46.4957C25.6463 45.9145 25.7713 45.3062 25.8131 44.6888C25.9413 44.7744 26.0715 44.8621 26.2035 44.9517C26.2318 44.9717 26.2628 44.9872 26.2954 44.9975L26.8199 45.1729C26.8746 45.1914 26.9327 45.1968 26.9898 45.1885C27.0468 45.1802 27.1013 45.1585 27.1491 45.125C27.685 44.7545 28.889 44.3182 29.6087 45.3143C29.7874 45.5923 30.0224 45.8262 30.2972 45.9996C30.5719 46.1731 30.8798 46.2819 31.1993 46.3184C31.2238 46.324 31.2488 46.3266 31.2739 46.3263C31.5943 46.3513 31.916 46.3533 32.2367 46.3323C32.4396 46.3243 32.6578 46.3164 32.8932 46.3164C34.656 46.3164 35.4542 46.6192 35.5786 46.7726ZM41.9773 38.4552C41.7176 38.6386 41.4216 38.7591 41.1113 38.8077C40.8009 38.8563 40.484 38.8318 40.1839 38.7361C39.4367 38.4843 38.7179 38.149 38.0401 37.736C36.2505 36.6981 34.3804 35.2139 33.6167 34.4091C33.4942 34.162 33.0042 33.1679 32.6654 32.63C32.1946 31.881 30.7609 29.6039 29.9551 27.8627C29.896 27.7332 29.794 27.6302 29.6677 27.5727C29.5414 27.5152 29.3995 27.5071 29.268 27.55C29.1602 27.5833 29.0647 27.65 28.9943 27.7412C28.6057 26.1993 28.6019 24.4402 28.6268 23.6114C29.3182 23.8632 29.9193 24.3289 30.3494 24.9462C30.826 25.6175 31.3811 26.7531 31.9687 27.9524C32.6903 29.4286 33.5095 31.104 34.3996 32.375C34.4192 32.4008 34.441 32.4248 34.4646 32.4468C34.48 32.4587 35.8944 33.6859 36.6486 34.943C37.4984 36.3614 39.6403 37.3495 39.7302 37.3894C39.7807 37.4141 39.8358 37.4268 39.8916 37.4266C39.9474 37.4263 40.0024 37.4131 40.0527 37.3879C40.1029 37.3627 40.1471 37.3262 40.1821 37.2809C40.217 37.2357 40.2418 37.1829 40.2547 37.1264C40.2585 37.1085 40.3944 36.6702 41.1945 36.5905C41.6396 36.5266 42.0788 36.4239 42.5075 36.2837C42.8714 36.161 43.2457 36.075 43.6253 36.0267H43.6292C43.3645 37.0104 42.7809 37.8684 41.9775 38.4552H41.9773Z" fill="#99CC00"/>
<path d="M25.8934 14.2601C26.2959 14.4319 26.7256 14.5238 27.1605 14.531C27.5673 14.5489 27.9693 14.4347 28.3109 14.2043C28.3887 14.1399 28.4395 14.0465 28.4523 13.9439C28.4652 13.8413 28.4392 13.7375 28.3798 13.6545C28.3191 13.5711 28.2297 13.5156 28.1304 13.4996C28.0311 13.4836 27.9297 13.5084 27.8477 13.5688C27.8247 13.5867 27.285 13.9692 26.1691 13.517C26.0751 13.4825 25.972 13.4874 25.8815 13.5308C25.7911 13.5741 25.7204 13.6525 25.6845 13.7492C25.6486 13.8459 25.6504 13.9534 25.6894 14.0488C25.7284 14.1441 25.8016 14.2199 25.8934 14.2601Z" fill="white"/>
<path d="M25.8934 14.2601C26.2959 14.4319 26.7256 14.5238 27.1605 14.531C27.5673 14.5489 27.9693 14.4347 28.3109 14.2043C28.3887 14.1399 28.4395 14.0465 28.4523 13.9439C28.4652 13.8413 28.4392 13.7375 28.3798 13.6545C28.3191 13.5711 28.2297 13.5156 28.1304 13.4996C28.0311 13.4836 27.9297 13.5084 27.8477 13.5688C27.8247 13.5867 27.285 13.9692 26.1691 13.517C26.0751 13.4825 25.972 13.4874 25.8815 13.5308C25.7911 13.5741 25.7204 13.6525 25.6845 13.7492C25.6486 13.8459 25.6504 13.9534 25.6894 14.0488C25.7284 14.1441 25.8016 14.2199 25.8934 14.2601Z" fill="#99CC00"/>
<path d="M23.3248 13.7441C23.3067 13.6954 23.2796 13.651 23.245 13.6132C23.2104 13.5754 23.169 13.5452 23.1231 13.5241C23.0773 13.503 23.0279 13.4915 22.9777 13.4903C22.9276 13.4891 22.8777 13.4981 22.831 13.517C21.7266 13.9632 21.1868 13.5947 21.1543 13.5708C21.0736 13.5066 20.9717 13.4784 20.871 13.4924C20.7703 13.5064 20.6791 13.5615 20.6174 13.6455C20.5557 13.7295 20.5286 13.8356 20.5421 13.9404C20.5555 14.0452 20.6084 14.1401 20.6892 14.2043C21.0308 14.4347 21.4328 14.5489 21.8395 14.531C22.2744 14.5238 22.7042 14.4319 23.1066 14.2601C23.1535 14.2411 23.1964 14.2128 23.2327 14.1766C23.2691 14.1404 23.2982 14.0971 23.3185 14.0492C23.3387 14.0012 23.3497 13.9496 23.3508 13.8973C23.3519 13.845 23.3431 13.7929 23.3248 13.7441Z" fill="white"/>
<path d="M23.3248 13.7441C23.3067 13.6954 23.2796 13.651 23.245 13.6132C23.2104 13.5754 23.169 13.5452 23.1231 13.5241C23.0773 13.503 23.0279 13.4915 22.9777 13.4903C22.9276 13.4891 22.8777 13.4981 22.831 13.517C21.7266 13.9632 21.1868 13.5947 21.1543 13.5708C21.0736 13.5066 20.9717 13.4784 20.871 13.4924C20.7703 13.5064 20.6791 13.5615 20.6174 13.6455C20.5557 13.7295 20.5286 13.8356 20.5421 13.9404C20.5555 14.0452 20.6084 14.1401 20.6892 14.2043C21.0308 14.4347 21.4328 14.5489 21.8395 14.531C22.2744 14.5238 22.7042 14.4319 23.1066 14.2601C23.1535 14.2411 23.1964 14.2128 23.2327 14.1766C23.2691 14.1404 23.2982 14.0971 23.3185 14.0492C23.3387 14.0012 23.3497 13.9496 23.3508 13.8973C23.3519 13.845 23.3431 13.7929 23.3248 13.7441Z" fill="#99CC00"/>
<path d="M59.36 14.472V37H58.72V14.472H59.36ZM78.4778 37H77.8378L63.8538 15.656V37H63.2138V14.504H63.8538L77.8378 35.816V14.504H78.4778V37ZM97.5965 37H96.9565L82.9725 15.656V37H82.3325V14.504H82.9725L96.9565 35.816V14.504H97.5965V37ZM102.091 15.048V25.448H111.499V26.024H102.091V36.424H112.459V37H101.451V14.472H112.459V15.048H102.091ZM127.484 37L121.468 27.176H120.86H115.804V37H115.164V14.472H120.796C123.27 14.472 125.105 15.0373 126.3 16.168C127.516 17.2987 128.124 18.8453 128.124 20.808C128.124 22.6213 127.612 24.072 126.588 25.16C125.564 26.248 124.102 26.8987 122.204 27.112L128.284 37H127.484ZM120.86 26.568C123.057 26.568 124.7 26.0453 125.788 25C126.897 23.9547 127.452 22.5573 127.452 20.808C127.452 17.0107 125.233 15.112 120.796 15.112H115.804V26.568H120.86ZM129.793 36.392H142.433V37H129.089V36.392L141.441 15.112H129.505V14.472H142.113V15.112L129.793 36.392ZM145.323 15.048V25.448H154.731V26.024H145.323V36.424H155.691V37H144.683V14.472H155.691V15.048H145.323ZM173.659 37H173.019L159.035 15.656V37H158.395V14.504H159.035L173.019 35.816V14.504H173.659V37Z" fill="white"/>
</svg>
